<svg xmlns="http://www.w3.org/2000/svg" viewBox="0 0 49.373 65.633"><defs><style>.a{fill:#f41052;}.b{fill:#fff;}</style></defs><path class="a" d="M43.822.012,3.56,2.712A3.815,3.815,0,0,0,0,6.519V53.682a3.816,3.816,0,0,0,3.56,3.807l1.977.132,4.031,7.513a.947.947,0,0,0,1.654.026l3.984-6.89,28.616,1.919A5.2,5.2,0,0,0,49.373,55V5.2A5.2,5.2,0,0,0,43.822.012Z"/><path class="b" d="M5.111,12.016h8.372a4.777,4.777,0,0,1,3.209,1.012,3.664,3.664,0,0,1,1.184,2.945,3.66,3.66,0,0,1-1.184,2.944,4.777,4.777,0,0,1-3.209,1.013H8.8v2.975H5.111Zm7.624,5.156q1.418,0,1.417-1.2t-1.417-1.2H8.8v2.4Z"/><path class="b" d="M20.991,12.016h3.49l4.362,10.889H25.058l-.7-1.9h-3.24l-.7,1.9H16.629Zm2.555,6.278-.81-2.508-.81,2.508Z"/><path class="b" d="M29.311,12.016h3.255l3.241,5.063V12.016h3.536V22.905H36.087l-3.24-5.078v5.078H29.311Z"/><path class="b" d="M7.9,27.825H5.111v-3.1H14.38v3.1H11.592v7.789H7.9Z"/><path class="b" d="M15.549,24.725h3.692V28.37h3.276V24.725h3.692V35.614H22.517V31.8H19.241v3.816H15.549Z"/><path class="b" d="M27.923,24.725h8.07v3.1H31.615v.95h3.1v2.789h-3.1v.95h4.378v3.1h-8.07Z"/><path class="b" d="M8.2,37.322h8.371a4.778,4.778,0,0,1,3.21,1.013,3.66,3.66,0,0,1,1.183,2.944,4.1,4.1,0,0,1-.483,2.064,3.413,3.413,0,0,1-1.37,1.332l1.713,3.537H17.1l-1.433-2.976H11.825v2.976H8.2Zm7.592,5.157q1.417,0,1.418-1.2t-1.418-1.2H11.825v2.4Z"/><path class="b" d="M25.711,37.322H29.2l4.362,10.89H29.778l-.7-1.9h-3.24l-.7,1.9H21.349ZM28.266,43.6l-.81-2.508-.81,2.508Z"/></svg>