<?xml version="1.0" encoding="utf-8"?>
<!-- Generator: Adobe Illustrator 25.0.0, SVG Export Plug-In . SVG Version: 6.00 Build 0)  -->
<svg version="1.1" id="Layer_1" xmlns="http://www.w3.org/2000/svg" xmlns:xlink="http://www.w3.org/1999/xlink" x="0px" y="0px"
	 viewBox="0 0 571 159" style="enable-background:new 0 0 571 159;" xml:space="preserve">
<style type="text/css">
	.st0{fill:#FFFFFF;}
	.st1{fill:#242424;}
</style>
<g id="XMLID_15_">
	<g>
		<g id="XMLID_187_">
			<path class="st0" d="M568.7,62.8L552,16.3c-2.4-6.8-8.9-11.4-16.1-11.4H64.3H57c-1.7,0-3.4,0.2-5,0.6c-3.9,1-7.5,3.1-10.3,6.1
				l-36,38.9c-4,4.4-5.6,10.5-4.1,16.2l9.1,35.1c2.1,8,9.1,13.6,17.3,14l25.8,1.2l19.4,36.1c2.4,4.4,8.7,4.5,11.2,0.2l19.6-33.9
				l410.2,19.4c7,0.3,13.7-2.9,17.7-8.6l34-47.6C570.1,76.9,571.1,69.5,568.7,62.8z"/>
		</g>
		<path id="XMLID_186_" class="st1" d="M52.8,4.9"/>
		<g id="XMLID_165_">
			<path id="XMLID_183_" class="st1" d="M59.1,17.3h43.1c6.9,0,12.5,1.7,16.5,5.2c4.1,3.5,6.1,8.5,6.1,15.2c0,6.6-2,11.7-6.1,15.2
				c-4.1,3.5-9.6,5.2-16.5,5.2H78.1v15.3h-19V17.3z M98.3,43.8c4.9,0,7.3-2.1,7.3-6.2c0-4.1-2.4-6.2-7.3-6.2H78.1v12.4H98.3z"/>
			<path id="XMLID_180_" class="st1" d="M140.8,17.3h18l22.5,56.1h-19.5l-3.6-9.8h-16.7l-3.6,9.8h-19.5L140.8,17.3z M154,49.6
				l-4.2-12.9l-4.2,12.9H154z"/>
			<path id="XMLID_178_" class="st1" d="M183.7,17.3h16.8l16.7,26.1V17.3h18.2v56.1h-16.8l-16.7-26.1v26.1h-18.2V17.3z"/>
			<path id="XMLID_176_" class="st1" d="M255.7,33.3h-14.4v-16H289v16h-14.4v40.1h-19V33.3z"/>
			<path id="XMLID_174_" class="st1" d="M295.1,17.3h19v18.8h16.9V17.3h19v56.1h-19V53.7h-16.9v19.6h-19V17.3z"/>
			<path id="XMLID_172_" class="st1" d="M358.8,17.3h41.5v16h-22.5v4.9h16v14.4h-16v4.9h22.5v16h-41.5V17.3z"/>
			<path id="XMLID_169_" class="st1" d="M407.5,17.3h43.1c6.9,0,12.5,1.7,16.5,5.2c4.1,3.5,6.1,8.5,6.1,15.2c0,4.2-0.8,7.7-2.5,10.6
				c-1.7,2.9-4,5.2-7.1,6.9l8.8,18.2h-19.2L446,58h-19.8v15.3h-18.7V17.3z M446.6,43.8c4.9,0,7.3-2.1,7.3-6.2c0-4.1-2.4-6.2-7.3-6.2
				h-20.4v12.4H446.6z"/>
			<path id="XMLID_166_" class="st1" d="M497.7,17.3h18l22.5,56.1h-19.5l-3.6-9.8h-16.7l-3.6,9.8h-19.5L497.7,17.3z M510.9,49.6
				l-4.2-12.9l-4.2,12.9H510.9z"/>
		</g>
	</g>
</g>
</svg>
